<svg data-name="图层 1" xmlns="http://www.w3.org/2000/svg" viewBox="0 0 360 360"><path d="M.14 86.27a176.19 176.19 0 0022.05 27A175.49 175.49 0 00164 163.89a175.5 175.5 0 00-50.61-141.84 176.16 176.16 0 00-27-22A71 71 0 01.14 86.27zm359.72 187.19A175.52 175.52 0 00196 195.83a175.52 175.52 0 0077.63 163.9 71 71 0 0186.26-86.27z" fill="#fff" fill-rule="evenodd"/><path d="M86.4 359.73a176.75 176.75 0 0027-22.05A175.52 175.52 0 00164 195.83 175.52 175.52 0 00.14 273.46a71 71 0 0186.26 86.27zM273.6 0A175.52 175.52 0 00196 163.89a175.49 175.49 0 00141.84-50.64 176.19 176.19 0 0022.05-27A71 71 0 01273.6 0z" fill="#7f7ff7" fill-rule="evenodd"/></svg>